<!DOCTYPE svg PUBLIC "-//W3C//DTD SVG 1.1//EN" "http://www.w3.org/Graphics/SVG/1.1/DTD/svg11.dtd">
<!-- Uploaded to: SVG Repo, www.svgrepo.com, Transformed by: SVG Repo Mixer Tools -->
<svg fill="#000000" version="1.1" xmlns="http://www.w3.org/2000/svg" xmlns:xlink="http://www.w3.org/1999/xlink" width="64px" height="64px" viewBox="-102.4 -102.4 716.80 716.80" enable-background="new 0 0 512 512" xml:space="preserve">
<g id="SVGRepo_bgCarrier" stroke-width="0">
<path transform="translate(-102.4, -102.4), scale(44.8)" fill="#fcfcfc" d="M9.166.33a2.25 2.25 0 00-2.332 0l-5.25 3.182A2.25 2.25 0 00.5 5.436v5.128a2.25 2.25 0 001.084 1.924l5.25 3.182a2.25 2.25 0 002.332 0l5.25-3.182a2.25 2.25 0 001.084-1.924V5.436a2.25 2.25 0 00-1.084-1.924L9.166.33z" strokewidth="0"/>
</g>
<g id="SVGRepo_tracerCarrier" stroke-linecap="round" stroke-linejoin="round"/>
<g id="SVGRepo_iconCarrier"> <g id="2069a460dcf28295e231f3111e03585e"> <path display="inline" d="M227.593,217.991l19.188,60.091h-62.627l18.825-60.091c4.346-14.48,7.964-31.493,11.582-45.611h0.724 C218.906,186.499,222.886,203.149,227.593,217.991z M511.5,85.667v340.667c0,46.842-38.325,85.167-85.167,85.167H85.667 C38.825,511.5,0.5,473.175,0.5,426.333V85.667C0.5,38.825,38.825,0.5,85.667,0.5h340.667C473.175,0.5,511.5,38.825,511.5,85.667z M324.246,380.885l-79.279-243.977h-56.83l-78.189,243.977h45.973l20.997-69.14h77.465l22.082,69.14H324.246z M399.52,204.597 h-44.888v176.288h44.888V204.597z M402.052,155.368c-0.362-13.756-9.772-24.252-24.977-24.252 c-14.842,0-24.976,10.496-24.976,24.252c0,13.395,9.772,23.891,24.614,23.891C392.279,179.258,402.052,168.762,402.052,155.368z"> </path> </g> </g>
</svg>