<!DOCTYPE svg PUBLIC "-//W3C//DTD SVG 1.1//EN" "http://www.w3.org/Graphics/SVG/1.1/DTD/svg11.dtd">
<!-- Uploaded to: SVG Repo, www.svgrepo.com, Transformed by: SVG Repo Mixer Tools -->
<svg fill="#000000" width="64px" height="64px" viewBox="-3.8 -3.8 26.60 26.60" xmlns="http://www.w3.org/2000/svg" class="cf-icon-svg">
<g id="SVGRepo_bgCarrier" stroke-width="0">
<path transform="translate(-3.8, -3.8), scale(1.6625)" fill="#fcfcfc" d="M9.166.33a2.25 2.25 0 00-2.332 0l-5.25 3.182A2.25 2.25 0 00.5 5.436v5.128a2.25 2.25 0 001.084 1.924l5.25 3.182a2.25 2.25 0 002.332 0l5.25-3.182a2.25 2.25 0 001.084-1.924V5.436a2.25 2.25 0 00-1.084-1.924L9.166.33z" strokewidth="0"/>
</g>
<g id="SVGRepo_tracerCarrier" stroke-linecap="round" stroke-linejoin="round"/>
<g id="SVGRepo_iconCarrier">
<path d="M16.5 9.5a8 8 0 1 1-8-8 8 8 0 0 1 8 8zm-2.874-2.287a.803.803 0 0 0-.8-.8h-2.054v-.251a.802.802 0 0 0-.8-.8h-2.93a.802.802 0 0 0-.8.8v.25H4.186a.802.802 0 0 0-.8.8v5.166a.802.802 0 0 0 .8.8h8.639a.803.803 0 0 0 .8-.8zm-2.692 2.582a2.427 2.427 0 1 1-2.428-2.427 2.428 2.428 0 0 1 2.428 2.427zm-4.055 0a1.627 1.627 0 1 0 1.627-1.627A1.63 1.63 0 0 0 6.88 9.795zm2.75-3.931a.4.4 0 1 0 .4.4.4.4 0 0 0-.4-.4z"/>
</g>
</svg>