<!DOCTYPE svg PUBLIC "-//W3C//DTD SVG 1.1//EN" "http://www.w3.org/Graphics/SVG/1.1/DTD/svg11.dtd">
<!-- Uploaded to: SVG Repo, www.svgrepo.com, Transformed by: SVG Repo Mixer Tools -->
<svg fill="#000000" width="64px" height="64px" viewBox="-102.4 -102.4 716.80 716.80" xmlns="http://www.w3.org/2000/svg">
<g id="SVGRepo_bgCarrier" stroke-width="0">
<path transform="translate(-102.4, -102.4), scale(44.8)" fill="#fcfcfc" d="M9.166.33a2.25 2.25 0 00-2.332 0l-5.25 3.182A2.25 2.25 0 00.5 5.436v5.128a2.25 2.25 0 001.084 1.924l5.25 3.182a2.25 2.25 0 002.332 0l5.25-3.182a2.25 2.25 0 001.084-1.924V5.436a2.25 2.25 0 00-1.084-1.924L9.166.33z" strokewidth="0"/>
</g>
<g id="SVGRepo_tracerCarrier" stroke-linecap="round" stroke-linejoin="round"/>
<g id="SVGRepo_iconCarrier">
<title>ionicons-v5-g</title>
<path d="M464,384.39a32,32,0,0,1-13-2.77,15.77,15.77,0,0,1-2.71-1.54l-82.71-58.22h0A32,32,0,0,1,352,295.7V216.3a32,32,0,0,1,13.58-26.16l82.71-58.22a15.77,15.77,0,0,1,2.71-1.54,32,32,0,0,1,45,29.24V352.38a32,32,0,0,1-32,32Z"/>
<path d="M268,400H84a68.07,68.07,0,0,1-68-68V180a68.07,68.07,0,0,1,68-68H268.48A67.6,67.6,0,0,1,336,179.52V332A68.07,68.07,0,0,1,268,400Z"/>
</g>
</svg>